<?xml version="1.0" standalone="no"?>
<!DOCTYPE svg PUBLIC "-//W3C//DTD SVG 20010904//EN"
 "http://www.w3.org/TR/2001/REC-SVG-20010904/DTD/svg10.dtd">
<svg version="1.0" xmlns="http://www.w3.org/2000/svg"
 width="700.000000pt" height="700.000000pt" viewBox="0 0 700.000000 700.000000"
 preserveAspectRatio="xMidYMid meet">
<metadata>
Created by potrace 1.11, written by Peter Selinger 2001-2013
</metadata>
<g transform="translate(0.000000,700.000000) scale(0.100000,-0.100000)"
fill="#000000" stroke="none">
<path d="M3467 5674 c-1 -1 -51 -4 -112 -7 -189 -11 -394 -52 -580 -117 -90
-32 -309 -135 -397 -187 -267 -158 -528 -413 -710 -693 -142 -218 -263 -525
-304 -769 -3 -18 -7 -42 -9 -53 -3 -11 -7 -46 -10 -77 -4 -31 -8 -67 -11 -81
-5 -30 -5 -333 0 -375 2 -16 7 -59 11 -95 43 -388 245 -843 505 -1135 77 -87
222 -226 300 -288 299 -239 708 -411 1071 -452 35 -4 78 -9 94 -11 47 -5 303
-5 370 0 53 4 103 11 230 32 58 9 224 54 311 84 116 40 348 154 449 220 256
168 481 392 647 644 170 258 305 628 334 914 3 37 8 70 11 74 5 9 4 325 -1
388 -5 58 -15 139 -21 166 -3 12 -7 39 -11 60 -9 60 -51 214 -85 311 -64 183
-226 480 -334 612 -367 447 -812 709 -1365 806 -84 15 -374 37 -383 29z m213
-198 c41 -4 82 -8 90 -10 8 -1 38 -6 65 -10 28 -5 84 -17 125 -28 41 -11 84
-22 96 -24 43 -8 232 -83 319 -126 200 -99 365 -218 525 -378 267 -267 448
-592 533 -955 25 -109 30 -137 43 -258 12 -107 6 -354 -10 -447 -3 -14 -7 -41
-10 -60 -37 -246 -153 -541 -306 -772 -60 -93 -74 -108 -98 -109 -31 -1 -1420
0 -1442 0 -13 1 -15 30 -13 208 1 115 2 211 2 216 1 4 240 7 531 7 l530 0 -2
748 -3 747 -382 0 c-210 0 -384 3 -388 6 -3 4 73 167 170 363 96 196 176 361
178 366 3 13 -161 85 -171 76 -3 -4 -97 -188 -207 -409 l-201 -402 -153 0
c-84 0 -156 2 -161 5 -4 3 -99 187 -210 410 -111 223 -203 406 -205 408 -1 1
-30 -13 -65 -33 -34 -19 -65 -35 -70 -35 -4 0 -13 -6 -19 -14 -10 -12 22 -83
168 -369 100 -195 181 -359 181 -363 0 -5 -186 -9 -412 -9 l-413 0 -2 -747 -2
-748 32 -1 c17 0 267 -1 555 -1 287 -1 522 -3 523 -7 4 -30 3 -415 -1 -421 -3
-4 -335 -7 -739 -7 l-734 2 -69 100 c-112 165 -212 380 -262 566 -57 215 -71
317 -71 549 0 213 8 283 56 473 88 352 263 660 519 917 256 256 552 426 901
518 62 17 134 33 159 37 25 4 54 9 65 11 11 2 56 7 100 10 44 4 81 7 82 8 5 4
208 -2 273 -8z m785 -1998 l0 -553 -990 -3 -990 -2 1 547 c1 302 2 551 3 556
1 4 446 7 989 7 l988 0 -1 -552z m378 -1435 c-229 -227 -517 -386 -843 -466
-58 -14 -127 -29 -155 -32 -27 -4 -57 -8 -65 -10 -28 -8 -185 -17 -285 -17
-184 0 -314 16 -493 59 -315 75 -596 225 -819 438 l-88 84 1403 1 1403 0 -58
-57z"/>
<path d="M2945 3709 c-66 -19 -87 -104 -39 -153 74 -73 194 7 154 104 -9 23
-65 63 -82 59 -1 0 -16 -5 -33 -10z"/>
<path d="M3984 3701 c-45 -27 -59 -74 -37 -120 34 -68 124 -72 164 -7 50 82
-45 177 -127 127z"/>
<path d="M3077 3350 c-9 -3 -12 -32 -12 -97 l0 -91 435 1 435 2 1 80 c0 44 -2
87 -5 95 -5 13 -59 15 -424 15 -229 0 -423 -2 -430 -5z"/>
</g>
</svg>
